<svg width="269" height="225" viewBox="0 0 269 225" fill="none" xmlns="http://www.w3.org/2000/svg">
<path d="M108.627 152.414C108.627 153.586 108.383 154.597 107.895 155.446C107.416 156.286 106.752 156.97 105.902 157.497C105.023 158.044 104.018 158.439 102.885 158.684C101.762 158.928 100.497 159.05 99.0908 159.05H97.3916V164.895C97.3916 165.246 97.4551 165.554 97.582 165.817C97.7188 166.071 97.9727 166.276 98.3438 166.433C98.5391 166.511 98.8564 166.594 99.2959 166.682C99.7354 166.77 100.106 166.828 100.409 166.857V168H89.1445V166.857C89.4277 166.828 89.8037 166.789 90.2725 166.74C90.7412 166.682 91.0684 166.613 91.2539 166.535C91.6348 166.379 91.8838 166.188 92.001 165.964C92.1279 165.739 92.1914 165.427 92.1914 165.026V150.363C92.1914 150.021 92.1328 149.729 92.0156 149.484C91.8984 149.23 91.6445 149.021 91.2539 148.854C90.9805 148.737 90.6143 148.635 90.1553 148.547C89.7061 148.449 89.3691 148.386 89.1445 148.356V147.214H100.614C103.3 147.214 105.307 147.644 106.635 148.503C107.963 149.353 108.627 150.656 108.627 152.414ZM102.914 153.161C102.914 151.599 102.597 150.441 101.962 149.689C101.337 148.928 100.219 148.547 98.6074 148.547H97.3916V157.673H98.0068C99.6084 157.673 100.824 157.307 101.654 156.574C102.494 155.832 102.914 154.694 102.914 153.161ZM125.766 164.499C125.424 165.056 125.009 165.583 124.521 166.081C124.042 166.569 123.495 166.989 122.88 167.341C122.226 167.712 121.562 167.99 120.888 168.176C120.224 168.371 119.457 168.469 118.588 168.469C117.143 168.469 115.893 168.264 114.838 167.854C113.793 167.443 112.929 166.892 112.245 166.198C111.562 165.505 111.049 164.689 110.707 163.752C110.375 162.805 110.209 161.779 110.209 160.676C110.209 159.68 110.39 158.728 110.751 157.819C111.122 156.901 111.645 156.086 112.318 155.373C112.982 154.68 113.817 154.118 114.823 153.688C115.839 153.259 116.972 153.044 118.222 153.044C119.589 153.044 120.712 153.21 121.591 153.542C122.47 153.874 123.197 154.333 123.773 154.919C124.33 155.476 124.735 156.135 124.989 156.896C125.243 157.648 125.37 158.439 125.37 159.27V160.222H115.468C115.468 162.224 115.854 163.747 116.625 164.792C117.396 165.837 118.622 166.359 120.302 166.359C121.22 166.359 122.045 166.11 122.777 165.612C123.51 165.104 124.135 164.465 124.652 163.693L125.766 164.499ZM120.17 158.933C120.17 158.347 120.141 157.746 120.082 157.131C120.023 156.516 119.921 156.013 119.774 155.622C119.608 155.163 119.379 154.816 119.086 154.582C118.803 154.348 118.441 154.23 118.002 154.23C117.25 154.23 116.649 154.611 116.2 155.373C115.751 156.135 115.507 157.341 115.468 158.991L120.17 158.933ZM141.776 156.149C141.776 156.892 141.547 157.546 141.088 158.112C140.629 158.669 140.023 158.947 139.271 158.947C138.559 158.947 137.953 158.767 137.455 158.405C136.967 158.044 136.723 157.512 136.723 156.809C136.723 156.467 136.747 156.203 136.796 156.018C136.845 155.822 136.889 155.642 136.928 155.476C136.479 155.495 136.005 155.651 135.507 155.944C135.009 156.237 134.569 156.628 134.188 157.116V165.158C134.188 165.5 134.242 165.783 134.35 166.008C134.457 166.232 134.638 166.408 134.892 166.535C135.106 166.643 135.453 166.735 135.932 166.813C136.42 166.882 136.771 166.921 136.986 166.931V168H127.187V166.931C127.431 166.911 127.675 166.887 127.919 166.857C128.173 166.818 128.388 166.77 128.563 166.711C128.876 166.604 129.091 166.438 129.208 166.213C129.325 165.988 129.384 165.695 129.384 165.334V156.809C129.384 156.457 129.301 156.145 129.135 155.871C128.969 155.588 128.769 155.363 128.534 155.197C128.358 155.08 128.134 154.982 127.86 154.904C127.597 154.826 127.304 154.772 126.981 154.743V153.674L133.969 153.293L134.188 153.513V155.637H134.247C134.921 154.855 135.634 154.245 136.386 153.806C137.147 153.356 137.938 153.132 138.759 153.132C139.667 153.132 140.395 153.415 140.941 153.981C141.498 154.538 141.776 155.261 141.776 156.149ZM149.584 168.498C148.637 168.498 147.709 168.356 146.801 168.073C145.902 167.8 145.204 167.507 144.706 167.194L144.267 168.19H143.124L142.934 162.727H144.003C144.149 163.166 144.394 163.664 144.735 164.221C145.077 164.768 145.468 165.261 145.907 165.7C146.366 166.14 146.889 166.511 147.475 166.813C148.07 167.116 148.705 167.268 149.379 167.268C150.268 167.268 150.927 167.097 151.356 166.755C151.796 166.403 152.016 165.866 152.016 165.144C152.016 164.753 151.918 164.431 151.723 164.177C151.527 163.923 151.259 163.703 150.917 163.518C150.536 163.322 150.116 163.156 149.657 163.02C149.208 162.883 148.651 162.717 147.987 162.521C147.323 162.326 146.752 162.131 146.273 161.936C145.805 161.73 145.316 161.413 144.809 160.983C144.369 160.603 144.018 160.144 143.754 159.606C143.49 159.069 143.358 158.43 143.358 157.688C143.358 156.311 143.935 155.197 145.087 154.348C146.249 153.498 147.768 153.073 149.643 153.073C150.531 153.073 151.347 153.166 152.089 153.352C152.841 153.527 153.471 153.723 153.979 153.938L154.286 153.073H155.399L155.634 158.068H154.594C154.252 157.053 153.666 156.179 152.836 155.446C152.006 154.704 151.112 154.333 150.155 154.333C149.403 154.333 148.812 154.489 148.383 154.802C147.953 155.114 147.738 155.549 147.738 156.105C147.738 156.848 148.051 157.385 148.676 157.717C149.311 158.049 150.194 158.361 151.327 158.654C153.075 159.104 154.354 159.719 155.165 160.5C155.976 161.271 156.381 162.258 156.381 163.459C156.381 165.061 155.751 166.301 154.491 167.18C153.241 168.059 151.605 168.498 149.584 168.498ZM173.139 155.197C173.861 155.871 174.413 156.677 174.794 157.614C175.175 158.552 175.365 159.567 175.365 160.661C175.365 161.745 175.175 162.771 174.794 163.737C174.423 164.694 173.876 165.515 173.153 166.198C172.382 166.931 171.459 167.492 170.385 167.883C169.32 168.273 168.1 168.469 166.723 168.469C165.531 168.469 164.433 168.298 163.427 167.956C162.431 167.614 161.547 167.102 160.775 166.418C160.033 165.764 159.447 164.958 159.018 164.001C158.588 163.034 158.373 161.955 158.373 160.764C158.373 159.592 158.559 158.552 158.93 157.644C159.311 156.726 159.877 155.91 160.629 155.197C161.352 154.514 162.24 153.986 163.295 153.615C164.359 153.234 165.546 153.044 166.854 153.044C168.222 153.044 169.423 153.234 170.458 153.615C171.503 153.986 172.396 154.514 173.139 155.197ZM169.389 165.349C169.604 164.802 169.76 164.138 169.857 163.356C169.965 162.575 170.019 161.667 170.019 160.632C170.019 159.948 169.97 159.167 169.872 158.288C169.774 157.409 169.628 156.716 169.433 156.208C169.198 155.593 168.871 155.109 168.451 154.758C168.041 154.406 167.519 154.23 166.884 154.23C166.19 154.23 165.634 154.421 165.214 154.802C164.804 155.183 164.486 155.676 164.262 156.281C164.057 156.838 163.915 157.492 163.837 158.244C163.759 158.986 163.72 159.763 163.72 160.573C163.72 161.638 163.754 162.521 163.822 163.225C163.891 163.918 164.057 164.616 164.32 165.319C164.545 165.925 164.867 166.403 165.287 166.755C165.707 167.106 166.239 167.282 166.884 167.282C167.47 167.282 167.973 167.121 168.393 166.799C168.812 166.467 169.145 165.983 169.389 165.349ZM196.591 168H187.772V166.931C187.958 166.911 188.183 166.887 188.446 166.857C188.71 166.828 188.91 166.779 189.047 166.711C189.252 166.604 189.398 166.447 189.486 166.242C189.574 166.037 189.618 165.734 189.618 165.334V158.479C189.618 157.482 189.433 156.735 189.062 156.237C188.7 155.729 188.163 155.476 187.45 155.476C187.06 155.476 186.693 155.534 186.352 155.651C186.02 155.769 185.692 155.939 185.37 156.164C185.087 156.359 184.857 156.56 184.682 156.765C184.516 156.97 184.374 157.15 184.257 157.307V165.173C184.257 165.515 184.306 165.803 184.403 166.037C184.501 166.262 184.662 166.433 184.887 166.55C185.043 166.638 185.238 166.716 185.473 166.784C185.707 166.853 185.937 166.901 186.161 166.931V168H177.255V166.931C177.499 166.911 177.743 166.887 177.987 166.857C178.241 166.818 178.456 166.77 178.632 166.711C178.944 166.604 179.159 166.438 179.276 166.213C179.394 165.988 179.452 165.695 179.452 165.334V156.809C179.452 156.506 179.374 156.208 179.218 155.915C179.062 155.622 178.856 155.383 178.603 155.197C178.427 155.08 178.202 154.982 177.929 154.904C177.665 154.826 177.372 154.772 177.05 154.743V153.674L184.037 153.293L184.257 153.513V155.637H184.315C184.589 155.393 184.921 155.1 185.312 154.758C185.702 154.416 186.063 154.138 186.396 153.923C186.757 153.688 187.23 153.488 187.816 153.322C188.402 153.156 189.027 153.073 189.691 153.073C191.283 153.073 192.475 153.527 193.266 154.436C194.066 155.334 194.467 156.53 194.467 158.024V165.202C194.467 165.563 194.521 165.852 194.628 166.066C194.735 166.281 194.936 166.452 195.229 166.579C195.385 166.647 195.575 166.716 195.8 166.784C196.034 166.853 196.298 166.901 196.591 166.931V168ZM214.711 167.692C214.281 167.878 213.773 168.049 213.188 168.205C212.602 168.361 211.981 168.439 211.327 168.439C210.126 168.439 209.242 168.264 208.676 167.912C208.109 167.551 207.724 167.038 207.519 166.374H207.431C207.099 166.706 206.776 166.989 206.464 167.224C206.161 167.458 205.834 167.658 205.482 167.824C205.023 168.039 204.579 168.195 204.149 168.293C203.729 168.4 203.139 168.454 202.377 168.454C201.244 168.454 200.277 168.122 199.477 167.458C198.676 166.784 198.275 165.896 198.275 164.792C198.275 164.157 198.363 163.62 198.539 163.181C198.715 162.731 198.964 162.336 199.286 161.994C199.579 161.682 199.916 161.423 200.297 161.218C200.688 161.013 201.112 160.822 201.571 160.646C202.45 160.324 203.505 159.992 204.735 159.65C205.966 159.299 206.864 158.986 207.431 158.713V157.307C207.431 157.062 207.411 156.74 207.372 156.34C207.333 155.939 207.25 155.603 207.123 155.329C206.986 155.017 206.771 154.753 206.479 154.538C206.186 154.323 205.8 154.216 205.321 154.216C204.892 154.216 204.53 154.279 204.237 154.406C203.954 154.523 203.725 154.646 203.549 154.772C203.578 154.968 203.661 155.266 203.798 155.666C203.935 156.066 204.003 156.452 204.003 156.823C204.003 156.989 203.959 157.199 203.871 157.453C203.783 157.697 203.656 157.893 203.49 158.039C203.266 158.234 203.012 158.386 202.729 158.493C202.455 158.601 202.03 158.654 201.454 158.654C200.634 158.654 200.014 158.459 199.594 158.068C199.174 157.668 198.964 157.15 198.964 156.516C198.964 155.969 199.179 155.48 199.608 155.051C200.048 154.611 200.58 154.25 201.205 153.967C201.82 153.674 202.528 153.449 203.329 153.293C204.13 153.127 204.872 153.044 205.556 153.044C206.503 153.044 207.372 153.103 208.163 153.22C208.954 153.327 209.667 153.557 210.302 153.908C210.907 154.25 211.386 154.748 211.737 155.402C212.099 156.047 212.279 156.892 212.279 157.937C212.279 159.04 212.255 160.349 212.206 161.862C212.167 163.376 212.147 164.372 212.147 164.851C212.147 165.29 212.211 165.637 212.338 165.891C212.475 166.145 212.68 166.335 212.953 166.462C213.119 166.54 213.378 166.589 213.729 166.608C214.091 166.618 214.418 166.623 214.711 166.623V167.692ZM207.431 160.061C206.884 160.246 206.342 160.461 205.805 160.705C205.268 160.939 204.828 161.188 204.486 161.452C204.125 161.726 203.842 162.077 203.637 162.507C203.432 162.927 203.329 163.425 203.329 164.001C203.329 164.763 203.5 165.314 203.842 165.656C204.193 165.998 204.623 166.169 205.131 166.169C205.668 166.169 206.107 166.062 206.449 165.847C206.801 165.622 207.108 165.349 207.372 165.026L207.431 160.061ZM224.76 168H215.575V166.931C215.829 166.911 216.073 166.887 216.308 166.857C216.552 166.828 216.767 166.779 216.952 166.711C217.265 166.594 217.475 166.428 217.582 166.213C217.699 165.988 217.758 165.695 217.758 165.334V149.104C217.758 148.732 217.68 148.391 217.523 148.078C217.377 147.756 217.177 147.512 216.923 147.346C216.728 147.219 216.43 147.097 216.029 146.979C215.639 146.862 215.292 146.794 214.989 146.774V145.705L222.357 145.324L222.577 145.559V165.144C222.577 165.505 222.641 165.798 222.768 166.022C222.895 166.247 223.1 166.423 223.383 166.55C223.578 166.638 223.783 166.716 223.998 166.784C224.213 166.853 224.467 166.901 224.76 166.931V168ZM235.438 168H226.181V166.931C226.435 166.911 226.684 166.887 226.928 166.857C227.172 166.828 227.382 166.779 227.558 166.711C227.87 166.594 228.09 166.428 228.217 166.213C228.344 165.988 228.407 165.695 228.407 165.334V156.809C228.407 156.467 228.329 156.169 228.173 155.915C228.017 155.651 227.821 155.441 227.587 155.285C227.411 155.168 227.143 155.056 226.781 154.948C226.43 154.841 226.107 154.772 225.814 154.743V153.674L232.992 153.293L233.212 153.513V165.144C233.212 165.485 233.285 165.778 233.432 166.022C233.578 166.257 233.788 166.433 234.062 166.55C234.257 166.638 234.472 166.716 234.706 166.784C234.94 166.853 235.185 166.901 235.438 166.931V168ZM233.3 148.02C233.3 148.762 233.012 149.396 232.436 149.924C231.869 150.441 231.195 150.7 230.414 150.7C229.623 150.7 228.939 150.441 228.363 149.924C227.797 149.396 227.514 148.762 227.514 148.02C227.514 147.277 227.797 146.643 228.363 146.115C228.939 145.588 229.623 145.324 230.414 145.324C231.205 145.324 231.884 145.588 232.45 146.115C233.017 146.643 233.3 147.277 233.3 148.02ZM250.995 168H236.581V166.989L244.989 154.802C243.827 154.802 242.782 154.816 241.854 154.846C240.927 154.875 240.194 154.992 239.657 155.197C239.472 155.266 239.223 155.622 238.91 156.267C238.607 156.901 238.368 157.565 238.192 158.259H237.152V153.469H250.775V154.377L242.338 166.667C242.572 166.667 242.914 166.672 243.363 166.682C243.812 166.691 244.242 166.696 244.652 166.696C245.131 166.696 245.644 166.687 246.19 166.667C246.737 166.638 247.162 166.604 247.465 166.564C247.865 166.516 248.183 166.379 248.417 166.154C248.661 165.93 248.852 165.661 248.988 165.349C249.115 165.065 249.281 164.641 249.486 164.074C249.691 163.498 249.848 162.985 249.955 162.536H250.995V168ZM268.295 164.499C267.953 165.056 267.538 165.583 267.05 166.081C266.571 166.569 266.024 166.989 265.409 167.341C264.755 167.712 264.091 167.99 263.417 168.176C262.753 168.371 261.986 168.469 261.117 168.469C259.672 168.469 258.422 168.264 257.367 167.854C256.322 167.443 255.458 166.892 254.774 166.198C254.091 165.505 253.578 164.689 253.236 163.752C252.904 162.805 252.738 161.779 252.738 160.676C252.738 159.68 252.919 158.728 253.28 157.819C253.651 156.901 254.174 156.086 254.848 155.373C255.512 154.68 256.347 154.118 257.353 153.688C258.368 153.259 259.501 153.044 260.751 153.044C262.118 153.044 263.241 153.21 264.12 153.542C264.999 153.874 265.727 154.333 266.303 154.919C266.859 155.476 267.265 156.135 267.519 156.896C267.772 157.648 267.899 158.439 267.899 159.27V160.222H257.997C257.997 162.224 258.383 163.747 259.154 164.792C259.926 165.837 261.151 166.359 262.831 166.359C263.749 166.359 264.574 166.11 265.307 165.612C266.039 165.104 266.664 164.465 267.182 163.693L268.295 164.499ZM262.699 158.933C262.699 158.347 262.67 157.746 262.611 157.131C262.553 156.516 262.45 156.013 262.304 155.622C262.138 155.163 261.908 154.816 261.615 154.582C261.332 154.348 260.971 154.23 260.531 154.23C259.779 154.23 259.179 154.611 258.729 155.373C258.28 156.135 258.036 157.341 257.997 158.991L262.699 158.933Z" fill="black"/>
<path d="M75.4238 96.5918C78.5488 100.352 80.8682 104.771 82.3818 109.849C83.9443 114.878 84.7256 120.151 84.7256 125.669C84.7256 132.31 83.7734 138.267 81.8691 143.54C79.9648 148.765 77.3525 153.11 74.0322 156.577C70.6143 160.142 66.5615 162.827 61.874 164.634C57.1865 166.44 51.9619 167.344 46.2002 167.344C39.9014 167.344 34.2861 166.294 29.3545 164.194C24.4229 162.095 20.4189 159.214 17.3428 155.552C14.1201 151.743 11.7031 147.3 10.0918 142.222C8.5293 137.095 7.74805 131.577 7.74805 125.669C7.74805 119.858 8.50488 114.512 10.0186 109.629C11.5811 104.746 13.998 100.327 17.2695 96.3721C20.3945 92.5635 24.4229 89.5605 29.3545 87.3633C34.2861 85.166 39.9258 84.0674 46.2734 84.0674C52.9629 84.0674 58.7002 85.1904 63.4854 87.4365C68.2705 89.6826 72.25 92.7344 75.4238 96.5918ZM68.5391 125.669C68.5391 114.048 66.5371 105.039 62.5332 98.6426C58.5781 92.2461 53.1826 89.0479 46.3467 89.0479C39.4131 89.0479 33.9443 92.2461 29.9404 98.6426C25.9365 105.039 23.9346 114.048 23.9346 125.669C23.9346 136.704 25.8389 145.591 29.6475 152.329C33.5049 159.019 39.0225 162.363 46.2002 162.363C53.3779 162.363 58.8955 159.019 62.7529 152.329C66.6104 145.591 68.5391 136.704 68.5391 125.669ZM151.596 165H102.23V159.8C103.695 159.702 105.966 159.507 109.042 159.214C112.167 158.872 114.315 158.53 115.487 158.188C117.001 157.7 118.148 156.919 118.93 155.845C119.76 154.722 120.175 153.062 120.175 150.864V99.4482H101.938V93.2959H105.966C111.239 93.2959 115.951 92.3193 120.102 90.3662C124.301 88.4131 127.304 86.3135 129.11 84.0674H135.189C135.043 87.2412 134.896 90.9521 134.75 95.2002C134.604 99.4482 134.53 103.257 134.53 106.626V150.059C134.53 151.768 134.896 153.306 135.629 154.673C136.41 155.991 137.509 156.968 138.925 157.603C140.194 158.14 142.27 158.628 145.15 159.067C148.031 159.507 150.18 159.751 151.596 159.8V165Z" fill="#01996D" fill-opacity="0.2"/>
</svg>
