<svg width="392" height="225" viewBox="0 0 392 225" fill="none" xmlns="http://www.w3.org/2000/svg">
<path d="M113.581 148.386C113.278 148.415 112.976 148.483 112.673 148.591C112.37 148.688 112.072 148.815 111.779 148.972C111.33 149.226 111.008 149.504 110.812 149.807C110.627 150.109 110.456 150.476 110.3 150.905C109.763 152.39 108.933 154.768 107.81 158.039C106.696 161.311 105.534 164.709 104.323 168.234H101.379L95.8857 152.78L90.9346 168.234H87.9902C86.3594 163.488 85.1094 159.836 84.2402 157.277C83.3711 154.709 82.6387 152.556 82.043 150.817C81.8574 150.29 81.6475 149.909 81.4131 149.675C81.1787 149.431 80.876 149.187 80.5049 148.942C80.2412 148.767 79.958 148.64 79.6553 148.562C79.3623 148.474 79.0205 148.405 78.6299 148.356V147.214H89.7188V148.327C89.0645 148.405 88.5762 148.483 88.2539 148.562C87.9316 148.63 87.6777 148.703 87.4922 148.781C87.3164 148.859 87.209 148.942 87.1699 149.03C87.1309 149.118 87.1113 149.196 87.1113 149.265C87.1113 149.401 87.126 149.533 87.1553 149.66C87.1943 149.787 87.2334 149.934 87.2725 150.1C87.5068 150.861 87.9805 152.307 88.6934 154.436C89.4062 156.564 90.2852 159.206 91.3301 162.36L96.0615 147.214H99.167L104.66 162.829C105.471 160.319 106.115 158.269 106.594 156.677C107.082 155.085 107.492 153.723 107.824 152.59C108.02 151.896 108.176 151.315 108.293 150.847C108.41 150.378 108.469 149.973 108.469 149.631C108.469 149.426 108.371 149.25 108.176 149.104C107.99 148.957 107.736 148.83 107.414 148.723C107.141 148.635 106.784 148.566 106.345 148.518C105.915 148.459 105.539 148.415 105.217 148.386V147.214H113.581V148.386ZM128.479 156.149C128.479 156.892 128.249 157.546 127.79 158.112C127.331 158.669 126.726 158.947 125.974 158.947C125.261 158.947 124.655 158.767 124.157 158.405C123.669 158.044 123.425 157.512 123.425 156.809C123.425 156.467 123.449 156.203 123.498 156.018C123.547 155.822 123.591 155.642 123.63 155.476C123.181 155.495 122.707 155.651 122.209 155.944C121.711 156.237 121.271 156.628 120.891 157.116V165.158C120.891 165.5 120.944 165.783 121.052 166.008C121.159 166.232 121.34 166.408 121.594 166.535C121.809 166.643 122.155 166.735 122.634 166.813C123.122 166.882 123.474 166.921 123.688 166.931V168H113.889V166.931C114.133 166.911 114.377 166.887 114.621 166.857C114.875 166.818 115.09 166.77 115.266 166.711C115.578 166.604 115.793 166.438 115.91 166.213C116.027 165.988 116.086 165.695 116.086 165.334V156.809C116.086 156.457 116.003 156.145 115.837 155.871C115.671 155.588 115.471 155.363 115.236 155.197C115.061 155.08 114.836 154.982 114.562 154.904C114.299 154.826 114.006 154.772 113.684 154.743V153.674L120.671 153.293L120.891 153.513V155.637H120.949C121.623 154.855 122.336 154.245 123.088 153.806C123.85 153.356 124.641 153.132 125.461 153.132C126.369 153.132 127.097 153.415 127.644 153.981C128.2 154.538 128.479 155.261 128.479 156.149ZM138.762 168H129.504V166.931C129.758 166.911 130.007 166.887 130.251 166.857C130.495 166.828 130.705 166.779 130.881 166.711C131.193 166.594 131.413 166.428 131.54 166.213C131.667 165.988 131.73 165.695 131.73 165.334V156.809C131.73 156.467 131.652 156.169 131.496 155.915C131.34 155.651 131.145 155.441 130.91 155.285C130.734 155.168 130.466 155.056 130.104 154.948C129.753 154.841 129.431 154.772 129.138 154.743V153.674L136.315 153.293L136.535 153.513V165.144C136.535 165.485 136.608 165.778 136.755 166.022C136.901 166.257 137.111 166.433 137.385 166.55C137.58 166.638 137.795 166.716 138.029 166.784C138.264 166.853 138.508 166.901 138.762 166.931V168ZM136.623 148.02C136.623 148.762 136.335 149.396 135.759 149.924C135.192 150.441 134.519 150.7 133.737 150.7C132.946 150.7 132.263 150.441 131.687 149.924C131.12 149.396 130.837 148.762 130.837 148.02C130.837 147.277 131.12 146.643 131.687 146.115C132.263 145.588 132.946 145.324 133.737 145.324C134.528 145.324 135.207 145.588 135.773 146.115C136.34 146.643 136.623 147.277 136.623 148.02ZM151.008 167.326C150.383 167.6 149.714 167.844 149.001 168.059C148.288 168.283 147.419 168.396 146.394 168.396C144.87 168.396 143.737 168.024 142.995 167.282C142.263 166.54 141.896 165.48 141.896 164.104V155.109H139.26V153.527H141.955V149.089H146.716V153.527H150.817V155.109H146.745V163.137C146.745 164.279 146.901 165.09 147.214 165.568C147.536 166.047 148.107 166.286 148.928 166.286C149.191 166.286 149.558 166.267 150.026 166.228C150.495 166.188 150.822 166.145 151.008 166.096V167.326ZM167.78 164.499C167.438 165.056 167.023 165.583 166.535 166.081C166.057 166.569 165.51 166.989 164.895 167.341C164.24 167.712 163.576 167.99 162.902 168.176C162.238 168.371 161.472 168.469 160.603 168.469C159.157 168.469 157.907 168.264 156.853 167.854C155.808 167.443 154.943 166.892 154.26 166.198C153.576 165.505 153.063 164.689 152.722 163.752C152.39 162.805 152.224 161.779 152.224 160.676C152.224 159.68 152.404 158.728 152.766 157.819C153.137 156.901 153.659 156.086 154.333 155.373C154.997 154.68 155.832 154.118 156.838 153.688C157.854 153.259 158.986 153.044 160.236 153.044C161.604 153.044 162.727 153.21 163.605 153.542C164.484 153.874 165.212 154.333 165.788 154.919C166.345 155.476 166.75 156.135 167.004 156.896C167.258 157.648 167.385 158.439 167.385 159.27V160.222H157.482C157.482 162.224 157.868 163.747 158.64 164.792C159.411 165.837 160.637 166.359 162.316 166.359C163.234 166.359 164.06 166.11 164.792 165.612C165.524 165.104 166.149 164.465 166.667 163.693L167.78 164.499ZM162.185 158.933C162.185 158.347 162.155 157.746 162.097 157.131C162.038 156.516 161.936 156.013 161.789 155.622C161.623 155.163 161.394 154.816 161.101 154.582C160.817 154.348 160.456 154.23 160.017 154.23C159.265 154.23 158.664 154.611 158.215 155.373C157.766 156.135 157.521 157.341 157.482 158.991L162.185 158.933ZM200.08 168H191.467C191.232 167.736 190.93 167.395 190.559 166.975C190.188 166.545 189.87 166.164 189.606 165.832C188.571 166.789 187.536 167.478 186.501 167.897C185.476 168.308 184.382 168.513 183.22 168.513C181.394 168.513 179.895 168.02 178.723 167.033C177.561 166.047 176.979 164.763 176.979 163.181C176.979 162.39 177.082 161.711 177.287 161.145C177.502 160.578 177.844 160.012 178.312 159.445C178.762 158.898 179.318 158.41 179.982 157.98C180.646 157.541 181.394 157.131 182.224 156.75C181.345 155.637 180.729 154.689 180.378 153.908C180.036 153.127 179.865 152.326 179.865 151.506C179.865 150.1 180.451 148.942 181.623 148.034C182.795 147.116 184.196 146.657 185.827 146.657C187.351 146.657 188.586 147.019 189.533 147.741C190.48 148.464 190.954 149.421 190.954 150.612C190.954 151.647 190.671 152.575 190.104 153.396C189.538 154.206 188.596 155.002 187.277 155.783C188.342 157.15 189.162 158.181 189.738 158.874C190.324 159.558 191.101 160.461 192.067 161.584C192.683 160.676 193.142 159.841 193.444 159.079C193.757 158.317 193.913 157.678 193.913 157.16C193.913 156.867 193.693 156.633 193.254 156.457C192.824 156.271 192.214 156.101 191.423 155.944V154.831H199.611V155.944C198.723 156.022 198.063 156.13 197.634 156.267C197.214 156.403 196.799 156.682 196.389 157.102C196.213 157.277 195.993 157.59 195.729 158.039C195.476 158.479 195.231 158.903 194.997 159.313C194.714 159.812 194.411 160.334 194.089 160.881C193.767 161.428 193.376 161.999 192.917 162.595C193.815 163.649 194.553 164.44 195.129 164.968C195.715 165.485 196.193 165.842 196.564 166.037C196.984 166.262 197.517 166.442 198.161 166.579C198.806 166.706 199.445 166.789 200.08 166.828V168ZM188.728 150.832C188.728 149.973 188.518 149.299 188.098 148.811C187.688 148.312 187.15 148.063 186.486 148.063C185.852 148.063 185.339 148.269 184.948 148.679C184.558 149.079 184.362 149.606 184.362 150.261C184.362 150.827 184.543 151.472 184.904 152.194C185.266 152.907 185.822 153.776 186.574 154.802C187.316 154.284 187.858 153.684 188.2 153C188.552 152.307 188.728 151.584 188.728 150.832ZM188.83 164.88C188.01 163.894 187.053 162.746 185.959 161.438C184.875 160.129 183.864 158.884 182.927 157.702C182.409 158.21 182.033 158.806 181.799 159.489C181.574 160.163 181.462 160.842 181.462 161.525C181.462 162.824 181.877 163.884 182.707 164.704C183.537 165.524 184.592 165.935 185.871 165.935C186.467 165.935 186.984 165.861 187.424 165.715C187.863 165.559 188.332 165.28 188.83 164.88ZM232.526 148.356C232.243 148.386 231.833 148.454 231.296 148.562C230.769 148.659 230.324 148.835 229.963 149.089C229.592 149.333 229.328 149.772 229.172 150.407C229.025 151.042 228.952 151.994 228.952 153.264V160.998C228.952 163.273 228.181 165.104 226.638 166.491C225.095 167.878 223.054 168.571 220.515 168.571C217.556 168.571 215.266 167.902 213.645 166.564C212.023 165.227 211.213 163.361 211.213 160.969V150.334C211.213 149.992 211.145 149.699 211.008 149.455C210.881 149.211 210.632 148.991 210.261 148.796C210.007 148.669 209.694 148.566 209.323 148.488C208.952 148.41 208.649 148.356 208.415 148.327V147.214H219.313V148.327C219.001 148.347 218.684 148.386 218.361 148.444C218.039 148.493 217.712 148.571 217.38 148.679C217.009 148.796 216.76 148.991 216.633 149.265C216.506 149.538 216.442 149.846 216.442 150.188V160.676C216.442 162.736 216.896 164.235 217.805 165.173C218.713 166.11 220.031 166.579 221.76 166.579C223.459 166.579 224.792 166.062 225.759 165.026C226.726 163.991 227.209 162.468 227.209 160.456V153.41C227.209 152.16 227.121 151.228 226.945 150.612C226.779 149.987 226.521 149.538 226.169 149.265C225.915 149.05 225.471 148.854 224.836 148.679C224.211 148.503 223.771 148.396 223.518 148.356V147.214H232.526V148.356ZM252.785 168H243.967V166.931C244.152 166.911 244.377 166.887 244.641 166.857C244.904 166.828 245.104 166.779 245.241 166.711C245.446 166.604 245.593 166.447 245.681 166.242C245.769 166.037 245.812 165.734 245.812 165.334V158.479C245.812 157.482 245.627 156.735 245.256 156.237C244.895 155.729 244.357 155.476 243.645 155.476C243.254 155.476 242.888 155.534 242.546 155.651C242.214 155.769 241.887 155.939 241.564 156.164C241.281 156.359 241.052 156.56 240.876 156.765C240.71 156.97 240.568 157.15 240.451 157.307V165.173C240.451 165.515 240.5 165.803 240.598 166.037C240.695 166.262 240.856 166.433 241.081 166.55C241.237 166.638 241.433 166.716 241.667 166.784C241.901 166.853 242.131 166.901 242.355 166.931V168H233.449V166.931C233.693 166.911 233.938 166.887 234.182 166.857C234.436 166.818 234.65 166.77 234.826 166.711C235.139 166.604 235.354 166.438 235.471 166.213C235.588 165.988 235.646 165.695 235.646 165.334V156.809C235.646 156.506 235.568 156.208 235.412 155.915C235.256 155.622 235.051 155.383 234.797 155.197C234.621 155.08 234.396 154.982 234.123 154.904C233.859 154.826 233.566 154.772 233.244 154.743V153.674L240.231 153.293L240.451 153.513V155.637H240.51C240.783 155.393 241.115 155.1 241.506 154.758C241.896 154.416 242.258 154.138 242.59 153.923C242.951 153.688 243.425 153.488 244.011 153.322C244.597 153.156 245.222 153.073 245.886 153.073C247.478 153.073 248.669 153.527 249.46 154.436C250.261 155.334 250.661 156.53 250.661 158.024V165.202C250.661 165.563 250.715 165.852 250.822 166.066C250.93 166.281 251.13 166.452 251.423 166.579C251.579 166.647 251.77 166.716 251.994 166.784C252.229 166.853 252.492 166.901 252.785 166.931V168ZM273.103 167.692L265.881 168.117L265.661 167.912V166.564L265.559 166.535C265.08 167.053 264.431 167.507 263.61 167.897C262.8 168.278 261.979 168.469 261.149 168.469C259.177 168.469 257.551 167.736 256.271 166.271C254.992 164.807 254.353 162.912 254.353 160.588C254.353 158.527 255.065 156.76 256.491 155.285C257.927 153.811 259.66 153.073 261.691 153.073C262.492 153.073 263.244 153.166 263.947 153.352C264.65 153.527 265.212 153.737 265.632 153.981V149.191C265.632 148.83 265.559 148.493 265.412 148.181C265.266 147.858 265.07 147.609 264.826 147.434C264.523 147.219 264.143 147.067 263.684 146.979C263.234 146.882 262.78 146.813 262.321 146.774V145.705L270.231 145.324L270.451 145.559V164.763C270.451 165.134 270.51 165.446 270.627 165.7C270.754 165.954 270.954 166.154 271.228 166.301C271.433 166.408 271.73 166.486 272.121 166.535C272.521 166.584 272.849 166.613 273.103 166.623V167.692ZM265.632 165.085V156.809C265.563 156.584 265.466 156.335 265.339 156.062C265.222 155.788 265.056 155.529 264.841 155.285C264.646 155.08 264.382 154.899 264.05 154.743C263.728 154.587 263.361 154.509 262.951 154.509C261.975 154.509 261.174 155.061 260.549 156.164C259.924 157.268 259.611 158.825 259.611 160.837C259.611 161.628 259.665 162.341 259.772 162.976C259.89 163.601 260.09 164.172 260.373 164.689C260.656 165.207 261.018 165.612 261.457 165.905C261.906 166.198 262.443 166.345 263.068 166.345C263.664 166.345 264.157 166.232 264.548 166.008C264.938 165.773 265.3 165.466 265.632 165.085ZM289.802 164.499C289.46 165.056 289.045 165.583 288.557 166.081C288.078 166.569 287.531 166.989 286.916 167.341C286.262 167.712 285.598 167.99 284.924 168.176C284.26 168.371 283.493 168.469 282.624 168.469C281.179 168.469 279.929 168.264 278.874 167.854C277.829 167.443 276.965 166.892 276.281 166.198C275.598 165.505 275.085 164.689 274.743 163.752C274.411 162.805 274.245 161.779 274.245 160.676C274.245 159.68 274.426 158.728 274.787 157.819C275.158 156.901 275.681 156.086 276.354 155.373C277.019 154.68 277.854 154.118 278.859 153.688C279.875 153.259 281.008 153.044 282.258 153.044C283.625 153.044 284.748 153.21 285.627 153.542C286.506 153.874 287.233 154.333 287.81 154.919C288.366 155.476 288.771 156.135 289.025 156.896C289.279 157.648 289.406 158.439 289.406 159.27V160.222H279.504C279.504 162.224 279.89 163.747 280.661 164.792C281.433 165.837 282.658 166.359 284.338 166.359C285.256 166.359 286.081 166.11 286.813 165.612C287.546 165.104 288.171 164.465 288.688 163.693L289.802 164.499ZM284.206 158.933C284.206 158.347 284.177 157.746 284.118 157.131C284.06 156.516 283.957 156.013 283.811 155.622C283.645 155.163 283.415 154.816 283.122 154.582C282.839 154.348 282.478 154.23 282.038 154.23C281.286 154.23 280.686 154.611 280.236 155.373C279.787 156.135 279.543 157.341 279.504 158.991L284.206 158.933ZM305.812 156.149C305.812 156.892 305.583 157.546 305.124 158.112C304.665 158.669 304.06 158.947 303.308 158.947C302.595 158.947 301.989 158.767 301.491 158.405C301.003 158.044 300.759 157.512 300.759 156.809C300.759 156.467 300.783 156.203 300.832 156.018C300.881 155.822 300.925 155.642 300.964 155.476C300.515 155.495 300.041 155.651 299.543 155.944C299.045 156.237 298.605 156.628 298.225 157.116V165.158C298.225 165.5 298.278 165.783 298.386 166.008C298.493 166.232 298.674 166.408 298.928 166.535C299.143 166.643 299.489 166.735 299.968 166.813C300.456 166.882 300.808 166.921 301.022 166.931V168H291.223V166.931C291.467 166.911 291.711 166.887 291.955 166.857C292.209 166.818 292.424 166.77 292.6 166.711C292.912 166.604 293.127 166.438 293.244 166.213C293.361 165.988 293.42 165.695 293.42 165.334V156.809C293.42 156.457 293.337 156.145 293.171 155.871C293.005 155.588 292.805 155.363 292.57 155.197C292.395 155.08 292.17 154.982 291.896 154.904C291.633 154.826 291.34 154.772 291.018 154.743V153.674L298.005 153.293L298.225 153.513V155.637H298.283C298.957 154.855 299.67 154.245 300.422 153.806C301.184 153.356 301.975 153.132 302.795 153.132C303.703 153.132 304.431 153.415 304.978 153.981C305.534 154.538 305.812 155.261 305.812 156.149ZM313.62 168.498C312.673 168.498 311.745 168.356 310.837 168.073C309.938 167.8 309.24 167.507 308.742 167.194L308.303 168.19H307.16L306.97 162.727H308.039C308.186 163.166 308.43 163.664 308.771 164.221C309.113 164.768 309.504 165.261 309.943 165.7C310.402 166.14 310.925 166.511 311.511 166.813C312.106 167.116 312.741 167.268 313.415 167.268C314.304 167.268 314.963 167.097 315.393 166.755C315.832 166.403 316.052 165.866 316.052 165.144C316.052 164.753 315.954 164.431 315.759 164.177C315.563 163.923 315.295 163.703 314.953 163.518C314.572 163.322 314.152 163.156 313.693 163.02C313.244 162.883 312.688 162.717 312.023 162.521C311.359 162.326 310.788 162.131 310.31 161.936C309.841 161.73 309.353 161.413 308.845 160.983C308.405 160.603 308.054 160.144 307.79 159.606C307.526 159.069 307.395 158.43 307.395 157.688C307.395 156.311 307.971 155.197 309.123 154.348C310.285 153.498 311.804 153.073 313.679 153.073C314.567 153.073 315.383 153.166 316.125 153.352C316.877 153.527 317.507 153.723 318.015 153.938L318.322 153.073H319.436L319.67 158.068H318.63C318.288 157.053 317.702 156.179 316.872 155.446C316.042 154.704 315.148 154.333 314.191 154.333C313.439 154.333 312.849 154.489 312.419 154.802C311.989 155.114 311.774 155.549 311.774 156.105C311.774 156.848 312.087 157.385 312.712 157.717C313.347 158.049 314.23 158.361 315.363 158.654C317.111 159.104 318.391 159.719 319.201 160.5C320.012 161.271 320.417 162.258 320.417 163.459C320.417 165.061 319.787 166.301 318.527 167.18C317.277 168.059 315.642 168.498 313.62 168.498ZM333.117 167.326C332.492 167.6 331.823 167.844 331.11 168.059C330.397 168.283 329.528 168.396 328.503 168.396C326.979 168.396 325.847 168.024 325.104 167.282C324.372 166.54 324.006 165.48 324.006 164.104V155.109H321.369V153.527H324.064V149.089H328.825V153.527H332.927V155.109H328.854V163.137C328.854 164.279 329.011 165.09 329.323 165.568C329.646 166.047 330.217 166.286 331.037 166.286C331.301 166.286 331.667 166.267 332.136 166.228C332.604 166.188 332.932 166.145 333.117 166.096V167.326ZM350.886 167.692C350.456 167.878 349.948 168.049 349.362 168.205C348.776 168.361 348.156 168.439 347.502 168.439C346.301 168.439 345.417 168.264 344.851 167.912C344.284 167.551 343.898 167.038 343.693 166.374H343.605C343.273 166.706 342.951 166.989 342.639 167.224C342.336 167.458 342.009 167.658 341.657 167.824C341.198 168.039 340.754 168.195 340.324 168.293C339.904 168.4 339.313 168.454 338.552 168.454C337.419 168.454 336.452 168.122 335.651 167.458C334.851 166.784 334.45 165.896 334.45 164.792C334.45 164.157 334.538 163.62 334.714 163.181C334.89 162.731 335.139 162.336 335.461 161.994C335.754 161.682 336.091 161.423 336.472 161.218C336.862 161.013 337.287 160.822 337.746 160.646C338.625 160.324 339.68 159.992 340.91 159.65C342.141 159.299 343.039 158.986 343.605 158.713V157.307C343.605 157.062 343.586 156.74 343.547 156.34C343.508 155.939 343.425 155.603 343.298 155.329C343.161 155.017 342.946 154.753 342.653 154.538C342.36 154.323 341.975 154.216 341.496 154.216C341.066 154.216 340.705 154.279 340.412 154.406C340.129 154.523 339.899 154.646 339.724 154.772C339.753 154.968 339.836 155.266 339.973 155.666C340.109 156.066 340.178 156.452 340.178 156.823C340.178 156.989 340.134 157.199 340.046 157.453C339.958 157.697 339.831 157.893 339.665 158.039C339.44 158.234 339.187 158.386 338.903 158.493C338.63 158.601 338.205 158.654 337.629 158.654C336.809 158.654 336.188 158.459 335.769 158.068C335.349 157.668 335.139 157.15 335.139 156.516C335.139 155.969 335.354 155.48 335.783 155.051C336.223 154.611 336.755 154.25 337.38 153.967C337.995 153.674 338.703 153.449 339.504 153.293C340.305 153.127 341.047 153.044 341.73 153.044C342.678 153.044 343.547 153.103 344.338 153.22C345.129 153.327 345.842 153.557 346.477 153.908C347.082 154.25 347.561 154.748 347.912 155.402C348.273 156.047 348.454 156.892 348.454 157.937C348.454 159.04 348.43 160.349 348.381 161.862C348.342 163.376 348.322 164.372 348.322 164.851C348.322 165.29 348.386 165.637 348.513 165.891C348.649 166.145 348.854 166.335 349.128 166.462C349.294 166.54 349.553 166.589 349.904 166.608C350.266 166.618 350.593 166.623 350.886 166.623V167.692ZM343.605 160.061C343.059 160.246 342.517 160.461 341.979 160.705C341.442 160.939 341.003 161.188 340.661 161.452C340.3 161.726 340.017 162.077 339.812 162.507C339.606 162.927 339.504 163.425 339.504 164.001C339.504 164.763 339.675 165.314 340.017 165.656C340.368 165.998 340.798 166.169 341.306 166.169C341.843 166.169 342.282 166.062 342.624 165.847C342.976 165.622 343.283 165.349 343.547 165.026L343.605 160.061ZM371.35 168H362.531V166.931C362.717 166.911 362.941 166.887 363.205 166.857C363.469 166.828 363.669 166.779 363.806 166.711C364.011 166.604 364.157 166.447 364.245 166.242C364.333 166.037 364.377 165.734 364.377 165.334V158.479C364.377 157.482 364.191 156.735 363.82 156.237C363.459 155.729 362.922 155.476 362.209 155.476C361.818 155.476 361.452 155.534 361.11 155.651C360.778 155.769 360.451 155.939 360.129 156.164C359.846 156.359 359.616 156.56 359.44 156.765C359.274 156.97 359.133 157.15 359.016 157.307V165.173C359.016 165.515 359.064 165.803 359.162 166.037C359.26 166.262 359.421 166.433 359.646 166.55C359.802 166.638 359.997 166.716 360.231 166.784C360.466 166.853 360.695 166.901 360.92 166.931V168H352.014V166.931C352.258 166.911 352.502 166.887 352.746 166.857C353 166.818 353.215 166.77 353.391 166.711C353.703 166.604 353.918 166.438 354.035 166.213C354.152 165.988 354.211 165.695 354.211 165.334V156.809C354.211 156.506 354.133 156.208 353.977 155.915C353.82 155.622 353.615 155.383 353.361 155.197C353.186 155.08 352.961 154.982 352.688 154.904C352.424 154.826 352.131 154.772 351.809 154.743V153.674L358.796 153.293L359.016 153.513V155.637H359.074C359.348 155.393 359.68 155.1 360.07 154.758C360.461 154.416 360.822 154.138 361.154 153.923C361.516 153.688 361.989 153.488 362.575 153.322C363.161 153.156 363.786 153.073 364.45 153.073C366.042 153.073 367.233 153.527 368.024 154.436C368.825 155.334 369.226 156.53 369.226 158.024V165.202C369.226 165.563 369.279 165.852 369.387 166.066C369.494 166.281 369.694 166.452 369.987 166.579C370.144 166.647 370.334 166.716 370.559 166.784C370.793 166.853 371.057 166.901 371.35 166.931V168ZM391.667 167.692L384.445 168.117L384.226 167.912V166.564L384.123 166.535C383.645 167.053 382.995 167.507 382.175 167.897C381.364 168.278 380.544 168.469 379.714 168.469C377.741 168.469 376.115 167.736 374.836 166.271C373.557 164.807 372.917 162.912 372.917 160.588C372.917 158.527 373.63 156.76 375.056 155.285C376.491 153.811 378.225 153.073 380.256 153.073C381.057 153.073 381.809 153.166 382.512 153.352C383.215 153.527 383.776 153.737 384.196 153.981V149.191C384.196 148.83 384.123 148.493 383.977 148.181C383.83 147.858 383.635 147.609 383.391 147.434C383.088 147.219 382.707 147.067 382.248 146.979C381.799 146.882 381.345 146.813 380.886 146.774V145.705L388.796 145.324L389.016 145.559V164.763C389.016 165.134 389.074 165.446 389.191 165.7C389.318 165.954 389.519 166.154 389.792 166.301C389.997 166.408 390.295 166.486 390.686 166.535C391.086 166.584 391.413 166.613 391.667 166.623V167.692ZM384.196 165.085V156.809C384.128 156.584 384.03 156.335 383.903 156.062C383.786 155.788 383.62 155.529 383.405 155.285C383.21 155.08 382.946 154.899 382.614 154.743C382.292 154.587 381.926 154.509 381.516 154.509C380.539 154.509 379.738 155.061 379.113 156.164C378.488 157.268 378.176 158.825 378.176 160.837C378.176 161.628 378.229 162.341 378.337 162.976C378.454 163.601 378.654 164.172 378.938 164.689C379.221 165.207 379.582 165.612 380.021 165.905C380.471 166.198 381.008 166.345 381.633 166.345C382.229 166.345 382.722 166.232 383.112 166.008C383.503 165.773 383.864 165.466 384.196 165.085Z" fill="black"/>
<path d="M75.2559 96.5918C78.3809 100.352 80.7002 104.771 82.2139 109.849C83.7764 114.878 84.5576 120.151 84.5576 125.669C84.5576 132.31 83.6055 138.267 81.7012 143.54C79.7969 148.765 77.1846 153.11 73.8643 156.577C70.4463 160.142 66.3936 162.827 61.7061 164.634C57.0186 166.44 51.7939 167.344 46.0322 167.344C39.7334 167.344 34.1182 166.294 29.1865 164.194C24.2549 162.095 20.251 159.214 17.1748 155.552C13.9521 151.743 11.5352 147.3 9.92383 142.222C8.36133 137.095 7.58008 131.577 7.58008 125.669C7.58008 119.858 8.33691 114.512 9.85059 109.629C11.4131 104.746 13.8301 100.327 17.1016 96.3721C20.2266 92.5635 24.2549 89.5605 29.1865 87.3633C34.1182 85.166 39.7578 84.0674 46.1055 84.0674C52.7949 84.0674 58.5322 85.1904 63.3174 87.4365C68.1025 89.6826 72.082 92.7344 75.2559 96.5918ZM68.3711 125.669C68.3711 114.048 66.3691 105.039 62.3652 98.6426C58.4102 92.2461 53.0146 89.0479 46.1787 89.0479C39.2451 89.0479 33.7764 92.2461 29.7725 98.6426C25.7686 105.039 23.7666 114.048 23.7666 125.669C23.7666 136.704 25.6709 145.591 29.4795 152.329C33.3369 159.019 38.8545 162.363 46.0322 162.363C53.21 162.363 58.7275 159.019 62.585 152.329C66.4424 145.591 68.3711 136.704 68.3711 125.669ZM168.859 165H100.231V155.039C101.55 153.525 103.381 151.841 105.725 149.985C108.068 148.081 110.852 146.03 114.074 143.833C116.027 142.515 118.371 141.074 121.105 139.512C123.84 137.949 126.94 136.24 130.407 134.385C134.265 132.334 137.219 130.527 139.27 128.965C141.369 127.402 143.273 125.474 144.982 123.179C146.105 121.665 147.009 119.785 147.692 117.539C148.376 115.244 148.718 111.997 148.718 107.798C148.718 101.694 147.082 97.2266 143.811 94.3945C140.539 91.5137 136.34 90.0732 131.213 90.0732C128.039 90.0732 125.036 90.708 122.204 91.9775C119.372 93.1982 117.248 94.9072 115.832 97.1045C116.174 98.667 116.589 100.522 117.077 102.671C117.614 104.819 117.883 106.919 117.883 108.97C117.883 110.825 117.102 112.485 115.539 113.95C114.025 115.366 111.755 116.074 108.728 116.074C106.286 116.074 104.406 115.244 103.088 113.584C101.77 111.875 101.11 109.604 101.11 106.772C101.11 104.136 101.843 101.499 103.308 98.8623C104.772 96.1768 106.872 93.7109 109.606 91.4648C112.292 89.2676 115.612 87.4854 119.567 86.1182C123.522 84.751 127.795 84.0674 132.385 84.0674C142.395 84.0674 150.329 86.3135 156.188 90.8057C162.097 95.249 165.051 101.206 165.051 108.677C165.051 112.241 164.514 115.488 163.439 118.418C162.414 121.348 160.729 123.936 158.386 126.182C155.798 128.672 152.771 130.82 149.304 132.627C145.837 134.385 140.539 136.851 133.41 140.024C129.162 141.929 125.207 143.931 121.545 146.03C117.883 148.081 114.88 150.083 112.536 152.036H168.859V165Z" fill="#01996D" fill-opacity="0.2"/>
</svg>
