<svg width="226" height="225" viewBox="0 0 226 225" fill="none" xmlns="http://www.w3.org/2000/svg">
<path d="M147.71 168H136.387V166.857C136.914 166.818 137.534 166.726 138.247 166.579C138.96 166.423 139.316 166.232 139.316 166.008C139.316 165.93 139.307 165.842 139.287 165.744C139.277 165.646 139.238 165.515 139.17 165.349L137.397 161.042H130.22C130.054 161.442 129.868 161.911 129.663 162.448C129.468 162.985 129.297 163.464 129.15 163.884C128.965 164.431 128.853 164.826 128.813 165.07C128.784 165.314 128.77 165.485 128.77 165.583C128.77 165.896 129.004 166.164 129.473 166.389C129.951 166.604 130.742 166.76 131.846 166.857V168H123.32V166.857C123.643 166.838 124.004 166.789 124.404 166.711C124.814 166.623 125.137 166.506 125.371 166.359C125.771 166.125 126.108 165.837 126.382 165.495C126.665 165.153 126.899 164.748 127.085 164.279C128.218 161.535 129.351 158.786 130.483 156.032C131.626 153.278 132.886 150.241 134.263 146.921H137.192C139.106 151.628 140.605 155.349 141.689 158.083C142.773 160.817 143.696 163.083 144.458 164.88C144.585 165.173 144.746 165.441 144.941 165.686C145.137 165.92 145.415 166.145 145.776 166.359C146.05 166.516 146.367 166.633 146.729 166.711C147.09 166.789 147.417 166.838 147.71 166.857V168ZM136.797 159.592L133.779 152.062L130.806 159.592H136.797ZM156.675 168H147.49V166.931C147.744 166.911 147.988 166.887 148.223 166.857C148.467 166.828 148.682 166.779 148.867 166.711C149.18 166.594 149.39 166.428 149.497 166.213C149.614 165.988 149.673 165.695 149.673 165.334V149.104C149.673 148.732 149.595 148.391 149.438 148.078C149.292 147.756 149.092 147.512 148.838 147.346C148.643 147.219 148.345 147.097 147.944 146.979C147.554 146.862 147.207 146.794 146.904 146.774V145.705L154.272 145.324L154.492 145.559V165.144C154.492 165.505 154.556 165.798 154.683 166.022C154.81 166.247 155.015 166.423 155.298 166.55C155.493 166.638 155.698 166.716 155.913 166.784C156.128 166.853 156.382 166.901 156.675 166.931V168ZM167.354 168H158.096V166.931C158.35 166.911 158.599 166.887 158.843 166.857C159.087 166.828 159.297 166.779 159.473 166.711C159.785 166.594 160.005 166.428 160.132 166.213C160.259 165.988 160.322 165.695 160.322 165.334V156.809C160.322 156.467 160.244 156.169 160.088 155.915C159.932 155.651 159.736 155.441 159.502 155.285C159.326 155.168 159.058 155.056 158.696 154.948C158.345 154.841 158.022 154.772 157.729 154.743V153.674L164.907 153.293L165.127 153.513V165.144C165.127 165.485 165.2 165.778 165.347 166.022C165.493 166.257 165.703 166.433 165.977 166.55C166.172 166.638 166.387 166.716 166.621 166.784C166.855 166.853 167.1 166.901 167.354 166.931V168ZM165.215 148.02C165.215 148.762 164.927 149.396 164.351 149.924C163.784 150.441 163.11 150.7 162.329 150.7C161.538 150.7 160.854 150.441 160.278 149.924C159.712 149.396 159.429 148.762 159.429 148.02C159.429 147.277 159.712 146.643 160.278 146.115C160.854 145.588 161.538 145.324 162.329 145.324C163.12 145.324 163.799 145.588 164.365 146.115C164.932 146.643 165.215 147.277 165.215 148.02ZM185.4 154.538C184.961 154.606 184.531 154.772 184.111 155.036C183.701 155.3 183.359 155.71 183.086 156.267C182.402 157.692 181.729 159.133 181.064 160.588C180.41 162.033 179.766 163.435 179.131 164.792C178.936 165.202 178.711 165.729 178.457 166.374C178.213 167.019 178.008 167.604 177.842 168.132H175.146C174.023 165.524 173.062 163.361 172.261 161.643C171.47 159.924 170.63 158.078 169.741 156.105C169.536 155.646 169.214 155.285 168.774 155.021C168.345 154.758 167.905 154.597 167.456 154.538V153.469H176.479V154.538C176.147 154.548 175.757 154.621 175.308 154.758C174.858 154.895 174.634 155.07 174.634 155.285C174.634 155.344 174.653 155.432 174.692 155.549C174.731 155.666 174.78 155.798 174.839 155.944C175.151 156.687 175.62 157.756 176.245 159.152C176.88 160.549 177.549 162.019 178.252 163.562C178.74 162.497 179.204 161.457 179.644 160.441C180.093 159.416 180.645 158.112 181.299 156.53C181.387 156.296 181.436 156.105 181.445 155.959C181.465 155.812 181.475 155.715 181.475 155.666C181.475 155.49 181.387 155.339 181.211 155.212C181.045 155.075 180.845 154.958 180.61 154.86C180.366 154.763 180.132 154.689 179.907 154.641C179.683 154.592 179.497 154.558 179.351 154.538V153.469H185.4V154.538ZM194.98 168H185.723V166.931C185.977 166.911 186.226 166.887 186.47 166.857C186.714 166.828 186.924 166.779 187.1 166.711C187.412 166.594 187.632 166.428 187.759 166.213C187.886 165.988 187.949 165.695 187.949 165.334V156.809C187.949 156.467 187.871 156.169 187.715 155.915C187.559 155.651 187.363 155.441 187.129 155.285C186.953 155.168 186.685 155.056 186.323 154.948C185.972 154.841 185.649 154.772 185.356 154.743V153.674L192.534 153.293L192.754 153.513V165.144C192.754 165.485 192.827 165.778 192.974 166.022C193.12 166.257 193.33 166.433 193.604 166.55C193.799 166.638 194.014 166.716 194.248 166.784C194.482 166.853 194.727 166.901 194.98 166.931V168ZM192.842 148.02C192.842 148.762 192.554 149.396 191.978 149.924C191.411 150.441 190.737 150.7 189.956 150.7C189.165 150.7 188.481 150.441 187.905 149.924C187.339 149.396 187.056 148.762 187.056 148.02C187.056 147.277 187.339 146.643 187.905 146.115C188.481 145.588 189.165 145.324 189.956 145.324C190.747 145.324 191.426 145.588 191.992 146.115C192.559 146.643 192.842 147.277 192.842 148.02ZM211.284 155.197C212.007 155.871 212.559 156.677 212.939 157.614C213.32 158.552 213.511 159.567 213.511 160.661C213.511 161.745 213.32 162.771 212.939 163.737C212.568 164.694 212.021 165.515 211.299 166.198C210.527 166.931 209.604 167.492 208.53 167.883C207.466 168.273 206.245 168.469 204.868 168.469C203.677 168.469 202.578 168.298 201.572 167.956C200.576 167.614 199.692 167.102 198.921 166.418C198.179 165.764 197.593 164.958 197.163 164.001C196.733 163.034 196.519 161.955 196.519 160.764C196.519 159.592 196.704 158.552 197.075 157.644C197.456 156.726 198.022 155.91 198.774 155.197C199.497 154.514 200.386 153.986 201.44 153.615C202.505 153.234 203.691 153.044 205 153.044C206.367 153.044 207.568 153.234 208.604 153.615C209.648 153.986 210.542 154.514 211.284 155.197ZM207.534 165.349C207.749 164.802 207.905 164.138 208.003 163.356C208.11 162.575 208.164 161.667 208.164 160.632C208.164 159.948 208.115 159.167 208.018 158.288C207.92 157.409 207.773 156.716 207.578 156.208C207.344 155.593 207.017 155.109 206.597 154.758C206.187 154.406 205.664 154.23 205.029 154.23C204.336 154.23 203.779 154.421 203.359 154.802C202.949 155.183 202.632 155.676 202.407 156.281C202.202 156.838 202.061 157.492 201.982 158.244C201.904 158.986 201.865 159.763 201.865 160.573C201.865 161.638 201.899 162.521 201.968 163.225C202.036 163.918 202.202 164.616 202.466 165.319C202.69 165.925 203.013 166.403 203.433 166.755C203.853 167.106 204.385 167.282 205.029 167.282C205.615 167.282 206.118 167.121 206.538 166.799C206.958 166.467 207.29 165.983 207.534 165.349ZM223.047 149.528C223.047 149.929 222.974 150.461 222.827 151.125C222.69 151.779 222.515 152.551 222.3 153.439C222.095 154.279 221.86 155.329 221.597 156.589C221.333 157.839 221.055 159.387 220.762 161.232H219.634C219.341 159.367 219.062 157.814 218.799 156.574C218.535 155.334 218.301 154.294 218.096 153.454C217.91 152.683 217.739 151.931 217.583 151.198C217.427 150.456 217.349 149.899 217.349 149.528C217.349 148.776 217.627 148.137 218.184 147.609C218.74 147.072 219.409 146.804 220.19 146.804C220.962 146.804 221.631 147.072 222.197 147.609C222.764 148.137 223.047 148.776 223.047 149.528ZM223.018 165.715C223.018 166.457 222.734 167.097 222.168 167.634C221.611 168.161 220.957 168.425 220.205 168.425C219.443 168.425 218.779 168.161 218.213 167.634C217.656 167.097 217.378 166.457 217.378 165.715C217.378 164.973 217.656 164.333 218.213 163.796C218.779 163.249 219.443 162.976 220.205 162.976C220.957 162.976 221.611 163.249 222.168 163.796C222.734 164.333 223.018 164.973 223.018 165.715Z" fill="black"/>
<path d="M75.2686 96.5918C78.3936 100.352 80.7129 104.771 82.2266 109.849C83.7891 114.878 84.5703 120.151 84.5703 125.669C84.5703 132.31 83.6182 138.267 81.7139 143.54C79.8096 148.765 77.1973 153.11 73.877 156.577C70.459 160.142 66.4062 162.827 61.7188 164.634C57.0312 166.44 51.8066 167.344 46.0449 167.344C39.7461 167.344 34.1309 166.294 29.1992 164.194C24.2676 162.095 20.2637 159.214 17.1875 155.552C13.9648 151.743 11.5479 147.3 9.93652 142.222C8.37402 137.095 7.59277 131.577 7.59277 125.669C7.59277 119.858 8.34961 114.512 9.86328 109.629C11.4258 104.746 13.8428 100.327 17.1143 96.3721C20.2393 92.5635 24.2676 89.5605 29.1992 87.3633C34.1309 85.166 39.7705 84.0674 46.1182 84.0674C52.8076 84.0674 58.5449 85.1904 63.3301 87.4365C68.1152 89.6826 72.0947 92.7344 75.2686 96.5918ZM68.3838 125.669C68.3838 114.048 66.3818 105.039 62.3779 98.6426C58.4229 92.2461 53.0273 89.0479 46.1914 89.0479C39.2578 89.0479 33.7891 92.2461 29.7852 98.6426C25.7812 105.039 23.7793 114.048 23.7793 125.669C23.7793 136.704 25.6836 145.591 29.4922 152.329C33.3496 159.019 38.8672 162.363 46.0449 162.363C53.2227 162.363 58.7402 159.019 62.5977 152.329C66.4551 145.591 68.3838 136.704 68.3838 125.669ZM127.856 191.733C123.267 191.733 119.067 191.147 115.259 189.976C111.45 188.853 108.179 187.314 105.444 185.361C102.71 183.408 100.586 181.162 99.0723 178.623C97.6074 176.084 96.875 173.472 96.875 170.786C96.875 168.394 97.4609 166.245 98.6328 164.341C99.8047 162.388 101.685 161.411 104.272 161.411C107.202 161.411 109.424 162.144 110.938 163.608C112.5 165.024 113.281 166.66 113.281 168.516C113.281 170.078 113.013 172.056 112.476 174.448C111.987 176.841 111.597 178.55 111.304 179.575C111.646 180.015 112.256 180.601 113.135 181.333C114.062 182.065 115.186 182.725 116.504 183.311C118.066 184.043 119.702 184.629 121.411 185.068C123.12 185.508 125.537 185.728 128.662 185.728C131.592 185.728 134.399 185.239 137.085 184.263C139.819 183.286 142.212 181.724 144.263 179.575C146.411 177.329 148.071 174.692 149.243 171.665C150.464 168.687 151.074 164.756 151.074 159.873C151.074 157.236 150.781 154.624 150.195 152.036C149.658 149.448 148.633 147.202 147.119 145.298C145.605 143.394 143.53 141.929 140.894 140.903C138.306 139.829 135.01 139.292 131.006 139.292H121.411V130.869H127.783C134.521 130.869 139.38 129.014 142.358 125.303C145.337 121.592 146.826 116.001 146.826 108.53C146.826 102.427 145.386 97.8369 142.505 94.7607C139.624 91.6357 135.547 90.0732 130.273 90.0732C127.734 90.0732 125.635 90.3906 123.975 91.0254C122.363 91.6113 121.045 92.1973 120.02 92.7832C118.799 93.4668 117.798 94.2236 117.017 95.0537C116.235 95.8838 115.649 96.4941 115.259 96.8848C115.601 98.4473 116.016 100.376 116.504 102.671C116.992 104.917 117.236 107.065 117.236 109.116C117.236 110.923 116.455 112.559 114.893 114.023C113.379 115.439 111.133 116.147 108.154 116.147C105.566 116.147 103.662 115.22 102.441 113.364C101.27 111.509 100.684 109.36 100.684 106.919C100.684 104.38 101.392 101.792 102.808 99.1553C104.224 96.5186 106.323 94.0527 109.106 91.7578C111.89 89.4629 115.283 87.6074 119.287 86.1914C123.291 84.7754 127.905 84.0674 133.13 84.0674C139.136 84.0674 144.092 84.9707 147.998 86.7773C151.953 88.5352 155.054 90.6836 157.3 93.2227C159.497 95.7129 161.011 98.3252 161.841 101.06C162.671 103.794 163.086 106.138 163.086 108.091C163.086 110.532 162.744 112.998 162.061 115.488C161.377 117.93 160.254 120.2 158.691 122.3C156.982 124.595 154.712 126.694 151.88 128.599C149.097 130.454 145.581 131.968 141.333 133.14V134.312C144.067 134.556 146.973 135.166 150.049 136.143C153.174 137.119 155.981 138.56 158.472 140.464C161.06 142.466 163.184 145.054 164.844 148.228C166.504 151.353 167.334 155.332 167.334 160.166C167.334 169.541 163.574 177.134 156.055 182.944C148.535 188.804 139.136 191.733 127.856 191.733Z" fill="#01996D" fill-opacity="0.2"/>
</svg>
